0
SECTION
2
HEADER
9
$INSUNITS
70
4
9
$ACADVER
1
AC1014
9
$HANDSEED
5
FFFF
0
ENDSEC
0
SECTION
2
TABLES
0
TABLE
2
VPORT
5
8
100
AcDbSymbolTable
0
ENDTAB
0
TABLE
2
LTYPE
5
5
100
AcDbSymbolTable
0
LTYPE
5
14
100
AcDbSymbolTableRecord
100
AcDbLinetypeTableRecord
2
BYBLOCK
70
0
0
LTYPE
5
15
100
AcDbSymbolTableRecord
100
AcDbLinetypeTableRecord
2
BYLAYER
70
0
0
ENDTAB
0
TABLE
2
LAYER
5
2
100
AcDbSymbolTable
70
2
0
LAYER
5
50
100
AcDbSymbolTableRecord
100
AcDbLayerTableRecord
2
0
70
0
6
CONTINUOUS
0
ENDTAB
0
TABLE
2
STYLE
5
3
100
AcDbSymbolTable
70
1
0
STYLE
5
11
100
AcDbSymbolTableRecord
100
AcDbTextStyleTableRecord
2
STANDARD
70
0
0
ENDTAB
0
TABLE
2
VIEW
5
6
100
AcDbSymbolTable
70
0
0
ENDTAB
0
TABLE
2
UCS
5
7
100
AcDbSymbolTable
70
0
0
ENDTAB
0
TABLE
2
APPID
5
9
100
AcDbSymbolTable
70
2
0
APPID
5
12
100
AcDbSymbolTableRecord
100
AcDbRegAppTableRecord
2
ACAD
70
0
0
ENDTAB
0
TABLE
2
DIMSTYLE
5
A
100
AcDbSymbolTable
70
1
0
ENDTAB
0
TABLE
2
BLOCK_RECORD
5
1
100
AcDbSymbolTable
70
1
0
BLOCK_RECORD
5
1F
100
AcDbSymbolTableRecord
100
AcDbBlockTableRecord
2
*MODEL_SPACE
0
BLOCK_RECORD
5
1B
100
AcDbSymbolTableRecord
100
AcDbBlockTableRecord
2
*PAPER_SPACE
0
ENDTAB
0
ENDSEC
0
SECTION
2
BLOCKS
0
BLOCK
5
20
100
AcDbEntity
100
AcDbBlockBegin
2
*MODEL_SPACE
0
ENDBLK
5
21
100
AcDbEntity
100
AcDbBlockEnd
0
BLOCK
5
1C
100
AcDbEntity
100
AcDbBlockBegin
2
*PAPER_SPACE
0
ENDBLK
5
1D
100
AcDbEntity
100
AcDbBlockEnd
0
ENDSEC
0
SECTION
2
ENTITIES
0
LINE
5
100
100
AcDbEntity
8
0
100
AcDbLine
10
16.999999999999996
20
34.54345089883175
30
0
11
-17.000000000000007
21
34.543450898831743
31
0
0
LINE
5
101
100
AcDbEntity
8
0
100
AcDbLine
10
-17.000000000000007
20
34.543450898831743
30
0
11
16.999999999999996
21
34.543450898831743
31
0
0
LWPOLYLINE
5
102
100
AcDbEntity
8
0
100
AcDbPolyline
90
8
70
1
43
0.0
10
16.999999999999996
20
34.853263835686889
10
16.999999999999996
20
35.293450898831736
42
0.4142135623730947
10
14.999999999999998
20
37.293450898831743
10
-15.000000000000004
20
37.293450898831743
42
0.41421356237309503
10
-17.000000000000004
20
35.293450898831736
10
-17.000000000000004
20
34.853263835686889
42
-0.28362449410231982
10
-17.275641025641026
20
34.40642711984475
42
4.2201865048963914
10
17.275641025641022
20
34.40642711984475
42
-0.28362449410231982
0
LINE
5
103
100
AcDbEntity
8
0
100
AcDbLine
10
-38.5
20
0
30
0
11
38.5
21
0
31
0
0
LINE
5
104
100
AcDbEntity
8
0
100
AcDbLine
10
-4.4408920985006262e-15
20
-38.5
30
0
11
-2.2204460492503131e-15
21
37.293450898831743
31
0
0
CIRCLE
5
105
100
AcDbEntity
8
0
100
AcDbCircle
10
17
20
-17
30
0
40
2.7999999999999998
210
0
220
0
230
1
0
CIRCLE
5
106
100
AcDbEntity
8
0
100
AcDbCircle
10
-17.000000000000004
20
-17
30
0
40
2.7999999999999998
210
0
220
0
230
1
0
CIRCLE
5
107
100
AcDbEntity
8
0
100
AcDbCircle
10
17
20
17
30
0
40
2.7999999999999998
210
0
220
0
230
1
0
CIRCLE
5
108
100
AcDbEntity
8
0
100
AcDbCircle
10
-17.000000000000004
20
17
30
0
40
2.7999999999999998
210
0
220
0
230
1
0
CIRCLE
5
109
100
AcDbEntity
8
0
100
AcDbCircle
10
-13.264692305075901
20
-23.287076631721298
30
0
40
0.94999999999999996
210
0
220
0
230
1
0
CIRCLE
5
110
100
AcDbEntity
8
0
100
AcDbCircle
10
0
20
0
30
0
40
26.800000000000001
210
0
220
0
230
1
0
LWPOLYLINE
5
111
100
AcDbEntity
8
0
100
AcDbPolyline
90
4
70
1
43
0.0
10
24.760658066070622
20
10.917586115274432
10
12.670950787527602
20
10.917586115274432
10
12.670950787527602
20
-3.5602114898943746
10
24.760658066070622
20
-3.560211489894376
0
LWPOLYLINE
5
112
100
AcDbEntity
8
0
100
AcDbPolyline
90
4
70
1
43
0.0
10
10.432116106315929
20
17.186323222667113
10
-12.403997642043121
20
17.186323222667113
10
-12.403997642043123
20
3.1562925537406379
10
10.432116106315929
20
3.1562925537406383
0
LWPOLYLINE
5
113
100
AcDbEntity
8
0
100
AcDbPolyline
90
4
70
1
43
0.0
10
-7.2546778752562702
20
3.1562925537406379
10
-15.015971436790069
20
3.1562925537406379
10
-15.015971436790069
20
-13.037944973690447
10
-7.2546778752562702
20
-13.037944973690447
0
CIRCLE
5
114
100
AcDbEntity
8
0
100
AcDbCircle
10
13.864995950840486
20
22.186387344039844
30
0
40
1.5000000000000002
210
0
220
0
230
1
0
CIRCLE
5
115
100
AcDbEntity
8
0
100
AcDbCircle
10
-13.150275869113679
20
21.589364762383401
30
0
40
1.5000000000000002
210
0
220
0
230
1
0
CIRCLE
5
116
100
AcDbEntity
8
0
100
AcDbCircle
10
18.939687894920265
20
-9.1572981929235517
30
0
40
1.5000000000000002
210
0
220
0
230
1
0
CIRCLE
5
117
100
AcDbEntity
8
0
100
AcDbCircle
10
-18.747362572142858
20
-9.6796929518729389
30
0
40
1.5000000000000002
210
0
220
0
230
1
0
LWPOLYLINE
5
118
100
AcDbEntity
8
0
100
AcDbPolyline
90
4
70
1
43
0.0
10
21.631209716659761
20
12.396132343795092
10
22.712369122287519
20
13.575578968116284
42
0.99999999999999989
10
21.311776255906114
20
14.859455762299238
10
20.230616850278356
20
13.680009137978049
42
0.99999999999999989
0
LINE
5
119
100
AcDbEntity
8
0
100
AcDbLine
10
20.930913283469053
20
13.038070740886571
30
0
11
22.012072689096811
21
14.217517365207758
31
0
0
LWPOLYLINE
5
120
100
AcDbEntity
8
0
100
AcDbPolyline
90
4
70
1
43
0.0
10
-30.102754745024125
20
9.0521060480305024
10
-30.102754745024125
20
18.158237342532718
10
-26.996787481783066
20
18.158237342532718
10
-26.996787481783066
20
9.0521060480305024
0
LWPOLYLINE
5
121
100
AcDbEntity
8
0
100
AcDbPolyline
90
4
70
1
43
0.0
10
28.811064292378052
20
15.015999771980182
10
33.811064292378049
20
15.015999771980182
10
33.811064292378049
20
10.26599977198018
10
28.811064292378052
20
10.26599977198018
0
LINE
5
122
100
AcDbEntity
8
0
100
AcDbLine
10
-28.549771113403594
20
18.158237342532718
30
0
11
-28.549771113403594
21
9.0521060480305024
31
0
0
LINE
5
123
100
AcDbEntity
8
0
100
AcDbLine
10
-30.102754745024125
20
13.60517169528161
30
0
11
-26.996787481783066
21
13.60517169528161
31
0
0
LINE
5
124
100
AcDbEntity
8
0
100
AcDbLine
10
31.311064292378052
20
15.015999771980182
30
0
11
31.311064292378052
21
10.26599977198018
31
0
0
LINE
5
125
100
AcDbEntity
8
0
100
AcDbLine
10
28.811064292378052
20
12.640999771980182
30
0
11
33.811064292378049
21
12.640999771980182
31
0
0
LINE
5
126
100
AcDbEntity
8
0
100
AcDbLine
10
26.724956069892528
20
-2.0041764049890074
30
0
11
38.339989028254948
21
-3.5064570884710715
31
0
0
LINE
5
127
100
AcDbEntity
8
0
100
AcDbLine
10
34.150455169216123
20
-17.776287906516366
30
0
11
23.186461460733391
21
-13.439791848459761
31
0
0
LINE
5
128
100
AcDbEntity
8
0
100
AcDbLine
10
26.724956069892528
20
-2.0041764049890074
30
0
11
23.186461460733391
21
-13.439791848459761
31
0
0
LINE
5
129
100
AcDbEntity
8
0
100
AcDbLine
10
-34.796490481471274
20
-16.475868722858856
30
0
11
-28.511497411853913
21
-11.76688137158289
31
0
0
LINE
5
130
100
AcDbEntity
8
0
100
AcDbLine
10
-28.511497411853913
20
-11.76688137158289
30
0
11
-29.999978320863065
21
-5.1218773135063156
31
0
0
LINE
5
131
100
AcDbEntity
8
0
100
AcDbLine
10
-29.999978320863065
20
-5.1218773135063156
30
0
11
-38.157782597857931
21
-5.1218773135063156
31
0
0
ENDSEC
0
SECTION
2
OBJECTS
0
DICTIONARY
5
C
100
AcDbDictionary
3
ACAD_GROUP
350
D
3
ACAD_MLINESTYLE
350
17
0
DICTIONARY
5
D
100
AcDbDictionary
0
DICTIONARY
5
1A
330
C
100
AcDbDictionary
0
DICTIONARY
5
17
100
AcDbDictionary
0
ENDSEC
0
EOF
